<svg width="100" height="100" viewBox="0 0 100 100" fill="none" xmlns="http://www.w3.org/2000/svg">
<path d="M21 23C21 19.5 26.5 13 42 13C51.5 13 62.6 16.2 63 23C63.0749 24.274 63.0505 25.8804 62.409 27.5V27.5044C62.409 28.9077 62.409 30.699 61.7906 32.5V32.5044C61.7906 32.5078 61.7906 32.5112 61.7906 32.5146V39.4956C62.3485 46.3313 61.1987 48.2908 60.3292 48.5017C75.083 48.6589 80.6654 59.3757 80.5 65.4956C81.6667 72.8304 77.5 87.5 61.7906 87.5C53.0672 87.5 47.8453 83.9637 44.8605 79.4956H41.3817C24.3817 79.4956 21.3337 71.9056 21.3337 65.4956L21.3337 58.5L21.3337 51.4956L21.3337 45.5L21.3337 38.4956L21.3337 31.5L21.952 26.5C21.2984 25.259 21 24.0481 21 23Z" fill="url(#paint0_linear_51_123)"/>
<path d="M62.409 27.5C62.409 32 62.4157 40.5 42 40.5C25 40.5 21.952 32.91 21.952 26.5L21.3337 31.5M61.7906 32.5V32.5044M61.7906 32.5044C61.7906 37.0056 61.7906 45.5 41.3817 45.5C24.3817 45.5 21.3337 37.91 21.3337 31.5M61.7906 32.5044V39.5V39.4956C62.4231 47.246 60.8604 48.7279 60 48.5M21.3337 31.5L21.3337 38.4956M21.3337 38.4956C21.3337 44.9056 24.3817 52.4956 41.3817 52.4956H48.8572M21.3337 38.4956L21.3337 45.5M21.3337 45.5C21.3337 51.91 24.3817 59.5 41.3817 59.5H43.26M21.3337 45.5L21.3337 51.4956M41.3817 65.4956C24.3817 65.4956 21.3337 57.9056 21.3337 51.4956M41.3817 65.4956C41.4998 63.8705 42.1263 61.7214 43.26 59.5M41.3817 65.4956C41.0762 69.2291 41.7661 74.8632 44.8605 79.4956M21.3337 51.4956L21.3337 58.5M21.3337 58.5C21.3337 64.91 24.3817 72.5 41.3817 72.5H42M21.3337 58.5L21.3337 65.4956C21.3337 71.9056 24.3817 79.4956 41.3817 79.4956H44.8605M60 48.5C75 48.5 80.6667 59.3304 80.5 65.4956C81.6667 72.8304 77.5 87.5 61.7906 87.5C53.0672 87.5 47.8453 83.9637 44.8605 79.4956M60 48.5C55.4561 48.5 51.7411 50.1485 48.8572 52.4956M48.8572 52.4956C46.3759 54.5149 44.5098 57.0514 43.26 59.5M44 65.4956C42.3755 79.6454 55 84.5 61.7906 84.5C68.5812 84.5 78 80.5 78 65.4956M60 56.5V69.5H66M42 18L42 24.5H49.5M23.5 23C23.5 35 61 37 61 23M21 23C21 19.5 26.5 13 42 13C51.5 13 62.6 16.2 63 23C63.2468 27.1965 62.4157 35 42 35C26.5 35 21 27.5 21 23Z" stroke="black"/>
<defs>
<linearGradient id="paint0_linear_51_123" x1="94" y1="29.5" x2="50.842" y2="87.5" gradientUnits="userSpaceOnUse">
<stop offset="0.436115" stop-color="#B9AD72"/>
<stop offset="1" stop-color="#685700"/>
</linearGradient>
</defs>
</svg>
