<svg width="50" height="50" viewBox="0 0 50 50" fill="none" xmlns="http://www.w3.org/2000/svg">
<path d="M33.3168 15.6391C38.0982 20.4205 38.2931 28.3846 33.4086 33.2691C29.398 37.2797 21.1151 38.7928 15.6391 33.3168C10.1631 27.8407 11.4388 19.8835 15.7309 15.5914M20.0578 12.9643C18.929 13.1866 18.2342 13.6927 18.2342 13.6927M25.0682 12.0928C23.8948 11.847 23.1052 12.1833 23.1052 12.1833M28.246 12.5951C28.246 12.5951 29.15 12.7109 30.3384 13.4489M27.5556 21.4003L24.5477 24.4082M21.5397 27.4162L24.5477 24.4082M24.5477 24.4082L21.4902 21.3508M24.5477 24.4082L27.6964 27.5569" stroke="#650000" stroke-width="2" stroke-linecap="round" stroke-linejoin="round"/>
</svg>
