<svg width="50" height="50" viewBox="0 0 50 50" fill="none" xmlns="http://www.w3.org/2000/svg">
<path fill-rule="evenodd" clip-rule="evenodd" d="M19.1596 28.5116L12.6596 35.0116C10.6596 37.0116 13.6596 39.5116 15.6596 37.5116L22.1596 31.5116C24.3262 33.0116 30.1596 35.0116 35.1596 30.0116C40.1596 25.0116 38.6596 18.5116 35.1596 15.0116C31.6596 11.5116 26.1596 10.5116 20.6596 15.0116C15.1596 19.5116 17.4929 26.345 19.1596 28.5116ZM33.1596 17.0116C29.4486 13.7645 25.6596 14.5116 22.6596 17.0116C19.6596 19.5116 19.1596 25.5116 22.6596 28.5116C26.1596 31.5116 30.6596 30.5116 33.1596 28.0116C35.6596 25.5116 36.8705 20.2587 33.1596 17.0116Z" fill="black"/>
<path d="M22.6596 20.5116C23.6596 17.5116 28.1596 15.5116 31.1596 17.5116M19.1596 28.5116L12.6596 35.0116C10.6596 37.0116 13.6596 39.5116 15.6596 37.5116L22.1596 31.5116C24.3262 33.0116 30.1596 35.0116 35.1596 30.0116C40.1596 25.0116 38.6596 18.5116 35.1596 15.0116C31.6596 11.5116 26.1596 10.5116 20.6596 15.0116C15.1596 19.5116 17.4929 26.345 19.1596 28.5116ZM22.6596 17.0116C25.6596 14.5116 29.4486 13.7645 33.1596 17.0116C36.8705 20.2587 35.6596 25.5116 33.1596 28.0116C30.6596 30.5116 26.1596 31.5116 22.6596 28.5116C19.1596 25.5116 19.6596 19.5116 22.6596 17.0116Z" stroke="black" stroke-linecap="round"/>
</svg>
