<svg width="50" height="50" viewBox="0 0 50 50" fill="none" xmlns="http://www.w3.org/2000/svg">
<path d="M27.8303 12.1665L29.1053 13.2L21.2105 20.1677H37L36.6695 35.1105C36.6094 37.8282 34.3891 40 31.6708 40H23.516C20.7793 40 18.5511 37.7998 18.5164 35.0633L18.3596 22.6839L15.5088 25.2L15.2407 24.9555C13.5012 23.3691 13.5012 20.6309 15.2407 19.0445L15.9474 18.4L15.8133 18.2777C14.9436 17.4845 14.9436 16.1155 15.8133 15.3223L18.1084 13.2291C18.872 12.5328 20.0403 12.5328 20.8038 13.2291L21.2105 13.6L22.616 12.3182C24.0775 10.9853 26.2938 10.9208 27.8303 12.1665Z" fill="#FF4242"/>
<path d="M15.9474 18.4L15.2407 19.0445C13.5012 20.6309 13.5012 23.3691 15.2407 24.9555L15.5088 25.2L18.3596 22.6839M15.9474 18.4L15.8133 18.2777C14.9436 17.4845 14.9436 16.1155 15.8133 15.3223L18.1084 13.2291C18.872 12.5328 20.0403 12.5328 20.8038 13.2291L21.2105 13.6M15.9474 18.4L21.2105 13.6M21.2105 13.6L22.616 12.3182C24.0775 10.9853 26.2938 10.9208 27.8303 12.1665L29.1053 13.2L21.2105 20.1677M21.2105 20.1677C27.3767 20.1677 30.8338 20.1677 37 20.1677L36.6695 35.1105C36.6094 37.8282 34.3891 40 31.6708 40H23.516C20.7793 40 18.5511 37.7998 18.5164 35.0633L18.3596 22.6839M21.2105 20.1677L18.3596 22.6839M24.2807 24.4V33.6M27.7895 24.4V33.6M30.8596 24.4V33.6" stroke="#1D1D1D" stroke-linecap="round"/>
</svg>
